# xmcd
#
# Track frame offsets:
#	150
#	8870
#	20807
#	34732
#	49712
#	59845
#	70190
#	85375
#	97860
#	111487
#	127462
#	151427
#
# Disc length: 2195 seconds
#
# Revision: 1
# Processed by: cddbd v1.5PL3 Copyright (c) Steve Scherf et al.
# Submitted via: audiograbber 1.80
#
DISCID=ac08910c
DTITLE=America's Country - Outlaws and Rebels
DYEAR=1997
DGENRE=Country
TTITLE0=Johnny Cash - The Rebel - Johnny Yuma
TTITLE1=Johnny Paycheck - Take This Job And Shove It
TTITLE2=Lefty Frizzell - Saginaw Michigan
TTITLE3=Jerry Reed - She Got The Goldmine (I Got The Shaft)
TTITLE4=Merle Haggard - Mama Tried
TTITLE5=George Jones - I'm A One Woman Man
TTITLE6=Waylon Jennings - Lukenbach, Texas (Back To The Basics Of Love)
TTITLE7=Freddy Fender - Wasted Days And Wasted Nights
TTITLE8=The Glaser Brothers - Lovin' Her Was Easier (Than Anything I'll Ever Do
TTITLE8=Again)
TTITLE9=Johnny Lee - Looking For Love
TTITLE10=David Allan Coe - You Never Even Call Me By My Name
TTITLE11=Mickey Gilley - Don't Thei Girls All Get Prettier At Closing Time
EXTD=
EXTT0=
EXTT1=
EXTT2=
EXTT3=
EXTT4=
EXTT5=
EXTT6=
EXTT7=
EXTT8=
EXTT9=
EXTT10=
EXTT11=
PLAYORDER=
